<?xml version="1.0" encoding="UTF-8" standalone="no"?>
<!DOCTYPE svg PUBLIC "-//W3C//DTD SVG 1.1//EN" "http://www.w3.org/Graphics/SVG/1.1/DTD/svg11.dtd">
<svg xmlns="http://www.w3.org/2000/svg" version="1.1" viewBox="0.00 0.00 1024.00 1024.00">
<g stroke-width="2.00" fill="none" stroke-linecap="butt">
<path stroke="#697e7f" vector-effect="non-scaling-stroke" d="
  M 682.80 89.52
  C 678.51 71.82 663.16 61.08 645.25 61.06
  Q 514.39 60.88 383.53 61.20
  C 368.52 61.23 355.42 64.14 346.83 77.50
  Q 333.17 98.73 346.12 120.27
  Q 351.15 128.65 360.23 132.39
  Q 365.59 134.60 375.51 135.01
  C 385.30 135.43 397.66 134.96 404.84 134.96
  Q 523.83 135.07 642.83 134.92
  C 654.75 134.91 663.46 133.38 671.78 126.05
  Q 688.16 111.63 682.80 89.52"
/>
<path stroke="#4f6f73" vector-effect="non-scaling-stroke" d="
  M 921.06 163.63
  C 911.59 159.92 901.31 161.17 891.29 161.21
  Q 833.98 161.45 776.67 161.55
  Q 766.12 161.57 764.86 161.81
  C 746.26 165.38 743.98 194.45 763.74 198.95
  Q 766.19 199.51 779.32 199.53
  Q 829.29 199.61 879.25 199.33
  C 890.39 199.27 902.65 201.83 906.88 213.09
  Q 908.44 217.25 908.41 228.08
  Q 908.27 302.89 908.03 377.69
  C 908.00 386.61 907.87 394.92 915.62 400.22
  Q 919.83 403.10 925.65 403.67
  C 936.74 404.75 944.50 397.44 945.98 386.68
  Q 946.54 382.63 946.53 378.50
  Q 946.24 294.13 946.28 209.73
  Q 946.29 195.16 945.02 189.83
  Q 940.59 171.27 921.06 163.63"
/>
<path stroke="#60706f" vector-effect="non-scaling-stroke" d="
  M 153.88 835.53
  L 249.47 835.59"
/>
<path stroke="#4f6f73" vector-effect="non-scaling-stroke" d="
  M 249.47 835.59
  L 647.31 835.57
  Q 648.37 835.57 647.57 834.87
  L 605.96 798.35
  A 2.80 2.77 65.3 0 0 604.13 797.66
  L 261.70 797.37"
/>
<path stroke="#60706f" vector-effect="non-scaling-stroke" d="
  M 261.70 797.37
  L 157.09 797.27"
/>
<path stroke="#7f6f66" vector-effect="non-scaling-stroke" d="
  M 157.09 797.27
  Q 147.52 797.41 138.24 797.19
  Q 129.15 796.99 124.14 791.58
  C 116.94 783.82 117.13 774.98 117.03 762.74
  Q 116.89 744.50 117.08 726.25
  C 117.17 717.91 116.87 713.34 122.97 708.49
  C 131.25 701.92 143.87 702.03 155.11 702.56"
/>
<path stroke="#60706f" vector-effect="non-scaling-stroke" d="
  M 155.11 702.56
  L 178.54 702.49"
/>
<path stroke="#4f6f73" vector-effect="non-scaling-stroke" d="
  M 178.54 702.49
  L 538.10 703.08"
/>
<path stroke="#697e7f" vector-effect="non-scaling-stroke" d="
  M 538.10 703.08
  Q 542.02 715.67 548.43 727.32
  Q 548.67 727.76 548.17 727.76
  Q 510.33 727.65 472.50 727.96
  Q 456.81 728.09 451.34 742.48
  C 447.05 753.76 452.89 766.76 463.90 771.09
  Q 467.15 772.37 472.76 772.35
  Q 537.11 772.20 601.32 772.24
  A 2.08 2.05 66.5 0 1 602.74 772.81
  Q 618.99 788.24 635.46 803.28
  Q 702.01 864.00 769.04 924.19
  Q 778.20 932.42 792.78 947.63"
/>
<path stroke="#7f6f66" vector-effect="non-scaling-stroke" d="
  M 792.78 947.63
  Q 810.33 958.64 826.32 962.94
  C 850.87 969.54 877.74 966.19 899.84 953.37
  C 923.97 939.37 942.33 914.08 947.32 886.39
  Q 954.18 848.35 934.33 815.81"
/>
<path stroke="#697e7f" vector-effect="non-scaling-stroke" d="
  M 934.33 815.81
  C 926.81 802.14 918.60 790.97 905.44 782.48
  C 900.68 779.41 896.38 778.00 892.40 773.51
  Q 883.42 763.40 877.88 757.87
  Q 854.43 734.54 831.39 711.35
  A 0.96 0.95 44.8 0 1 831.38 710.01
  L 866.69 673.28
  A 0.62 0.62 0.0 0 0 866.68 672.41
  L 848.80 654.11
  Q 848.40 653.70 847.99 654.10
  L 815.23 686.29
  A 0.52 0.51 -41.1 0 1 814.47 686.24
  L 803.49 672.64
  Q 803.09 672.14 803.55 671.70
  L 835.05 641.06
  A 0.61 0.61 0.0 0 0 835.07 640.20
  L 807.83 611.72
  Q 807.04 610.88 806.20 611.68
  L 773.73 642.33
  A 0.45 0.44 -41.2 0 1 773.08 642.29
  L 761.75 628.84
  A 0.89 0.89 0.0 0 1 761.82 627.63
  L 792.96 597.73
  A 0.87 0.86 46.7 0 0 792.99 596.51
  L 778.73 581.57
  Q 778.31 581.13 777.85 581.53
  L 747.01 608.45
  A 1.23 1.23 0.0 0 1 745.25 608.30
  L 734.21 594.78
  Q 733.97 594.49 734.25 594.23
  L 762.65 567.76
  Q 763.36 567.11 762.67 566.43
  L 750.40 554.25
  Q 749.78 553.64 749.09 554.17
  L 720.91 575.46
  A 1.11 1.10 43.4 0 1 719.62 575.49
  L 710.73 569.48"
/>
<path stroke="#77372f" vector-effect="non-scaling-stroke" d="
  M 710.73 569.48
  Q 719.55 562.28 726.88 553.37
  C 735.07 543.39 745.93 542.47 757.50 541.99
  Q 759.65 541.90 760.50 542.76
  Q 810.94 593.89 859.70 646.63
  C 865.14 652.51 870.74 659.50 876.26 665.70
  Q 877.78 667.42 877.76 665.12
  Q 877.29 594.54 877.21 525.47
  Q 877.21 525.40 877.37 516.53
  C 877.65 501.61 875.36 487.15 869.22 473.37
  Q 852.62 436.12 816.72 415.45
  A 1.96 1.95 15.2 0 1 815.74 413.74
  Q 815.80 396.59 815.75 379.41
  C 815.75 377.92 815.30 376.06 814.46 375.02
  Q 789.43 343.89 764.89 311.72"
/>
<path stroke="#7f6f66" vector-effect="non-scaling-stroke" d="
  M 764.89 311.72
  L 759.57 304.04
  A 0.51 0.51 0.0 0 0 758.75 304.01
  L 692.58 388.35
  A 0.98 0.98 0.0 0 0 692.57 389.55
  L 704.84 405.85"
/>
<path stroke="#77372f" vector-effect="non-scaling-stroke" d="
  M 704.84 405.85
  Q 733.20 442.57 761.83 479.95
  Q 765.06 484.17 765.08 486.49
  C 765.11 490.07 761.03 493.48 758.30 490.44
  C 738.99 468.99 721.37 445.71 703.38 423.14
  Q 697.78 416.10 691.02 407.41
  Q 639.35 340.89 586.90 274.98"
/>
<path stroke="#7f6f66" vector-effect="non-scaling-stroke" d="
  M 586.90 274.98
  L 579.83 265.31
  Q 579.45 264.79 579.04 265.29
  C 551.42 299.04 524.41 333.55 495.12 365.86
  Q 490.72 370.71 485.13 374.13
  Q 474.32 380.74 463.41 386.84
  A 1.85 1.84 -42.4 0 1 461.47 386.76
  L 451.89 380.29
  A 0.79 0.79 0.0 0 0 450.85 380.44
  L 404.14 437.67
  A 1.21 1.20 -49.2 0 0 404.26 439.33
  L 413.97 448.08"
/>
<path stroke="#77372f" vector-effect="non-scaling-stroke" d="
  M 413.97 448.08
  Q 492.69 512.56 570.54 579.01"
/>
<path stroke="#697e7f" vector-effect="non-scaling-stroke" d="
  M 570.54 579.01
  L 562.60 586.61"
/>
<path stroke="#77372f" vector-effect="non-scaling-stroke" d="
  M 562.60 586.61
  Q 504.52 537.53 445.70 489.38
  Q 437.72 482.85 430.36 476.56
  Q 380.52 433.93 330.84 391.13
  Q 326.91 387.75 322.26 386.20"
/>
<path stroke="#7f6f66" vector-effect="non-scaling-stroke" d="
  M 322.26 386.20
  L 317.33 386.47
  A 1.08 1.06 -73.3 0 0 316.53 386.91
  C 313.16 391.46 309.87 396.26 306.45 400.52
  Q 291.10 419.61 275.44 438.43
  C 271.90 442.69 269.20 447.16 265.40 451.35
  Q 259.79 457.53 254.69 464.18
  Q 252.86 466.57 252.81 470.51
  Q 252.70 479.31 252.75 487.77
  A 1.41 1.40 72.2 0 1 252.17 488.91
  C 239.15 498.24 232.60 511.43 226.51 525.22
  Q 226.23 525.84 226.13 525.17
  C 225.86 523.19 225.71 521.12 225.13 519.49
  C 224.12 516.65 219.81 509.54 216.10 513.87
  C 200.65 531.94 186.28 550.89 171.70 569.67
  Q 167.13 575.56 163.10 581.19"
/>
<path stroke="#77372f" vector-effect="non-scaling-stroke" d="
  M 163.10 581.19
  Q 153.32 593.86 144.61 606.64
  C 144.14 607.33 143.62 609.13 143.62 610.19
  Q 143.62 622.31 142.85 634.48
  Q 142.29 643.39 143.17 647.53
  Q 145.35 657.76 153.37 665.64"
/>
<path stroke="#7f6f66" vector-effect="non-scaling-stroke" d="
  M 153.37 665.64
  C 148.32 665.38 142.77 665.65 138.39 663.34
  C 132.39 660.17 125.86 655.02 121.81 650.94
  C 116.47 645.57 116.89 640.31 116.90 633.75
  Q 116.99 437.50 117.24 241.25
  Q 117.26 230.18 117.43 219.06
  Q 117.48 215.26 118.70 212.68
  C 124.94 199.47 136.86 199.66 149.50 199.74
  Q 232.25 200.21 346.50 199.99
  Q 522.25 199.65 698.00 199.80
  C 707.96 199.81 716.08 198.33 720.98 188.99
  C 725.76 179.87 720.78 166.60 710.80 162.91
  Q 707.25 161.60 698.16 161.59
  Q 406.71 161.26 115.25 161.57
  C 97.94 161.59 83.65 173.63 79.26 189.75
  Q 77.81 195.08 77.79 206.38
  C 77.49 400.82 77.62 595.26 77.31 789.70
  Q 77.30 798.91 78.28 803.24
  C 82.60 822.22 98.48 834.64 117.76 835.45
  Q 125.55 835.78 153.88 835.53"
/>
<path stroke="#da7d6a" vector-effect="non-scaling-stroke" d="
  M 153.37 665.64
  L 165.95 666.02"
/>
<path stroke="#c3b6aa" vector-effect="non-scaling-stroke" d="
  M 165.95 666.02
  Q 165.96 667.26 165.40 669.06
  Q 164.74 671.21 164.55 672.03
  Q 161.95 683.53 159.33 695.00
  Q 158.75 697.54 155.11 702.56"
/>
<path stroke="#c3b6aa" vector-effect="non-scaling-stroke" d="
  M 157.09 797.27
  L 154.37 799.37
  Q 154.19 799.52 154.12 799.73
  Q 154.04 799.98 154.32 799.86
  Q 154.78 799.66 154.75 800.16
  Q 154.35 805.73 154.27 811.32
  Q 154.21 815.48 153.86 822.21
  Q 153.51 828.80 153.88 835.53"
/>
<path stroke="#94b5b7" vector-effect="non-scaling-stroke" d="
  M 261.70 797.37
  Q 262.38 798.24 264.27 797.87
  Q 264.55 797.82 264.76 797.88
  Q 265.42 798.06 264.74 798.12
  Q 264.13 798.17 263.67 798.70
  Q 263.37 799.04 263.28 799.48
  C 261.99 805.50 258.30 809.47 256.00 815.25
  Q 255.82 815.72 255.92 816.21
  Q 256.08 817.03 255.19 817.11
  A 1.46 1.46 0.0 0 0 253.97 818.05
  Q 250.97 826.26 248.43 834.56
  Q 248.33 834.91 249.47 835.59"
/>
<path stroke="#c48c83" vector-effect="non-scaling-stroke" d="
  M 562.60 586.61
  Q 539.64 613.45 534.26 648.00
  Q 533.45 653.22 532.63 666.77"
/>
<path stroke="#ab7c77" vector-effect="non-scaling-stroke" d="
  M 532.63 666.77
  L 202.29 666.29"
/>
<path stroke="#bb7d73" vector-effect="non-scaling-stroke" d="
  M 202.29 666.29
  L 165.95 666.02"
/>
<path stroke="#94b5b7" vector-effect="non-scaling-stroke" d="
  M 202.29 666.29
  Q 202.10 666.48 202.22 666.78
  Q 202.31 667.02 202.05 667.06
  C 200.82 667.26 200.40 668.39 199.68 669.02
  Q 191.32 676.31 187.45 685.67
  Q 186.77 687.30 185.49 687.73
  A 0.32 0.32 0.0 0 1 185.16 687.21
  L 185.80 686.54
  Q 185.90 686.44 185.77 686.38
  Q 185.62 686.31 185.50 686.19
  Q 185.29 685.99 185.22 686.27
  L 182.78 696.08
  A 1.05 1.04 -11.6 0 1 182.40 696.65
  Q 180.68 697.95 180.94 700.07
  Q 181.01 700.60 180.59 700.92
  L 178.54 702.49"
/>
<path stroke="#ccc4ba" vector-effect="non-scaling-stroke" d="
  M 934.33 815.81
  Q 933.12 819.64 934.82 823.03
  Q 937.13 827.65 937.33 831.62
  Q 938.34 851.59 933.33 870.68
  C 924.36 904.90 894.36 936.26 861.06 948.06
  C 847.49 952.86 832.43 953.82 818.25 951.95
  Q 808.77 950.70 792.78 947.63"
/>
<path stroke="#9dc4c7" vector-effect="non-scaling-stroke" d="
  M 538.10 703.08
  Q 538.08 702.77 538.09 702.52
  Q 538.11 702.20 538.04 701.99
  C 534.13 689.75 533.65 678.97 532.63 666.77"
/>
<path stroke="#da7d6a" vector-effect="non-scaling-stroke" d="
  M 322.26 386.20
  Q 314.41 405.69 298.78 441.04
  Q 284.64 473.01 268.19 498.82
  C 265.59 502.89 270.30 504.66 272.87 506.63
  A 0.55 0.55 0.0 0 1 272.92 507.46
  C 271.49 508.84 269.71 510.30 268.56 511.65
  Q 250.05 533.44 230.68 556.19
  A 2.54 2.54 0.0 0 1 227.43 556.72
  L 208.47 545.22
  A 1.02 1.01 35.4 0 0 207.15 545.44
  Q 192.56 563.41 177.76 580.53
  Q 176.46 582.04 174.25 581.44
  Q 168.20 579.81 163.10 581.19"
/>
<path stroke="#da7d6a" vector-effect="non-scaling-stroke" d="
  M 704.84 405.85
  L 764.89 311.72"
/>
<path stroke="#c48c83" vector-effect="non-scaling-stroke" d="
  M 710.73 569.48
  Q 705.51 566.78 700.33 563.95
  Q 666.50 545.45 627.98 551.52
  Q 595.81 556.58 570.54 579.01"
/>
<path stroke="#da7d6a" vector-effect="non-scaling-stroke" d="
  M 586.90 274.98
  Q 576.05 290.50 565.40 306.02
  Q 559.69 314.35 553.79 322.29
  Q 516.88 371.98 480.91 422.48
  Q 480.56 422.97 480.09 422.59
  L 454.22 401.71
  Q 453.76 401.34 453.31 401.71
  Q 451.33 403.29 449.44 405.69
  Q 434.81 424.20 413.97 448.08"
/>
<path stroke="#7f6f66" vector-effect="non-scaling-stroke" d="
  M 426.2052 275.1565
  A 23.79 23.30 82.5 0 0 446.2007 248.5287
  A 23.79 23.30 82.5 0 0 419.9948 227.9835
  A 23.79 23.30 82.5 0 0 399.9993 254.6113
  A 23.79 23.30 82.5 0 0 426.2052 275.1565"
/>
<path stroke="#697e7f" vector-effect="non-scaling-stroke" d="
  M 358.05 231.68
  Q 354.69 230.41 353.50 230.41
  Q 258.75 230.53 164.00 230.06
  C 153.09 230.00 142.78 232.42 137.67 243.07
  C 132.08 254.70 137.66 268.36 149.59 272.26
  Q 153.55 273.54 165.54 273.57
  Q 254.52 273.74 343.50 274.15
  Q 349.62 274.17 355.48 272.69
  C 375.10 267.72 376.60 238.72 358.05 231.68"
/>
<path stroke="#77372f" vector-effect="non-scaling-stroke" d="
  M 369.87 334.96
  A 24.17 24.17 0.0 0 0 345.70 310.79
  L 162.10 310.79
  A 24.17 24.17 0.0 0 0 137.93 334.96
  L 137.93 336.08
  A 24.17 24.17 0.0 0 0 162.10 360.25
  L 345.70 360.25
  A 24.17 24.17 0.0 0 0 369.87 336.08
  L 369.87 334.96"
/>
<path stroke="#77372f" vector-effect="non-scaling-stroke" d="
  M 447.7665 334.7879
  A 23.65 22.68 -4.2 0 0 422.5190 313.9009
  A 23.65 22.68 -4.2 0 0 400.5935 338.2521
  A 23.65 22.68 -4.2 0 0 425.8410 359.1391
  A 23.65 22.68 -4.2 0 0 447.7665 334.7879"
/>
<path stroke="#77372f" vector-effect="non-scaling-stroke" d="
  M 218.46 427.64
  C 219.90 416.09 211.73 402.11 198.96 400.82
  Q 198.76 400.80 188.53 400.89
  Q 180.51 400.96 172.50 401.03
  Q 158.27 401.15 156.53 401.52
  C 142.66 404.42 133.45 421.74 139.94 434.96
  Q 146.08 447.47 162.15 447.81
  Q 185.06 448.30 196.48 448.01
  C 209.07 447.70 216.92 439.95 218.46 427.64"
/>
<path stroke="#4f6f73" vector-effect="non-scaling-stroke" d="
  M 941.4437 441.2601
  A 19.42 18.89 -44.7 0 0 914.3529 441.4930
  A 19.42 18.89 -44.7 0 0 913.8363 468.5799
  A 19.42 18.89 -44.7 0 0 940.9271 468.3470
  A 19.42 18.89 -44.7 0 0 941.4437 441.2601"
/>
<path stroke="#4f6f73" vector-effect="non-scaling-stroke" d="
  M 946.75 521.73
  A 19.26 19.26 0.0 0 0 927.49 502.47
  A 19.26 19.26 0.0 0 0 908.23 521.73
  A 19.26 19.26 0.0 0 0 927.49 540.99
  A 19.26 19.26 0.0 0 0 946.75 521.73"
/>
<path stroke="#7f6f66" vector-effect="non-scaling-stroke" d="
  M 907.67 646.45
  Q 901.35 655.24 895.83 664.54
  Q 893.03 669.25 889.88 672.90
  Q 876.53 688.35 862.60 703.95
  A 0.54 0.53 20.9 0 0 863.00 704.84
  Q 884.36 705.06 906.00 705.30
  Q 917.21 705.42 921.85 703.98
  C 933.24 700.44 942.25 690.37 945.57 679.11
  Q 947.01 674.26 946.95 663.27
  Q 946.78 627.25 947.01 591.26
  Q 947.10 575.88 933.31 571.97
  C 917.85 567.59 908.73 579.01 908.76 593.25
  Q 908.81 617.70 908.64 642.14
  C 908.64 643.35 908.24 645.66 907.67 646.45"
/>
<path stroke="#697e7f" vector-effect="non-scaling-stroke" d="
  M 277.7865 748.9101
  A 21.38 21.38 0.0 0 0 256.3320 727.6049
  L 190.3124 727.8354
  A 21.38 21.38 0.0 0 0 169.0072 749.2899
  L 169.0135 751.0899
  A 21.38 21.38 0.0 0 0 190.4680 772.3951
  L 256.4876 772.1646
  A 21.38 21.38 0.0 0 0 277.7928 750.7101
  L 277.7865 748.9101"
/>
<path stroke="#697e7f" vector-effect="non-scaling-stroke" d="
  M 417.82 749.13
  A 21.58 21.58 0.0 0 0 396.24 727.55
  L 330.98 727.55
  A 21.58 21.58 0.0 0 0 309.40 749.13
  L 309.40 750.95
  A 21.58 21.58 0.0 0 0 330.98 772.53
  L 396.24 772.53
  A 21.58 21.58 0.0 0 0 417.82 750.95
  L 417.82 749.13"
/>
<path stroke="#7f6f66" vector-effect="non-scaling-stroke" d="
  M 945.52 754.13
  A 18.63 18.63 0.0 0 0 926.89 735.50
  A 18.63 18.63 0.0 0 0 908.26 754.13
  A 18.63 18.63 0.0 0 0 926.89 772.76
  A 18.63 18.63 0.0 0 0 945.52 754.13"
/>
<path stroke="#697e7f" vector-effect="non-scaling-stroke" d="
  M 510.8859 115.4499
  A 17.10 16.42 93.4 0 0 528.2911 99.3538
  A 17.10 16.42 93.4 0 0 512.9141 81.3101
  A 17.10 16.42 93.4 0 0 495.5089 97.4062
  A 17.10 16.42 93.4 0 0 510.8859 115.4499"
/>
<path stroke="#697e7f" vector-effect="non-scaling-stroke" d="
  M 665.73 98.43
  A 17.16 17.16 0.0 0 0 648.57 81.27
  A 17.16 17.16 0.0 0 0 631.41 98.43
  A 17.16 17.16 0.0 0 0 648.57 115.59
  A 17.16 17.16 0.0 0 0 665.73 98.43"
/>
<path stroke="#697e7f" vector-effect="non-scaling-stroke" d="
  M 388.4469 109.9822
  A 17.57 17.11 39.4 0 0 385.7302 85.6085
  A 17.57 17.11 39.4 0 0 361.2931 87.6778
  A 17.57 17.11 39.4 0 0 364.0098 112.0515
  A 17.57 17.11 39.4 0 0 388.4469 109.9822"
/>
<path stroke="#697e7f" vector-effect="non-scaling-stroke" d="
  M 574.0081 113.4578
  A 16.60 16.04 110.9 0 0 594.9146 103.6721
  A 16.60 16.04 110.9 0 0 585.8519 82.4422
  A 16.60 16.04 110.9 0 0 564.9454 92.2279
  A 16.60 16.04 110.9 0 0 574.0081 113.4578"
/>
<path stroke="#697e7f" vector-effect="non-scaling-stroke" d="
  M 458.4118 90.7776
  A 16.80 16.40 -26.6 0 0 436.0468 83.6359
  A 16.80 16.40 -26.6 0 0 428.3682 105.8224
  A 16.80 16.40 -26.6 0 0 450.7332 112.9641
  A 16.80 16.40 -26.6 0 0 458.4118 90.7776"
/>
<path stroke="#4f6f73" vector-effect="non-scaling-stroke" d="
  M 929.4765 525.6766
  A 2.34 0.67 86.9 0 0 930.0190 523.3038
  A 2.34 0.67 86.9 0 0 929.2235 521.0034
  A 2.34 0.67 86.9 0 0 928.6810 523.3762
  A 2.34 0.67 86.9 0 0 929.4765 525.6766"
/>
<path stroke="#697e7f" vector-effect="non-scaling-stroke" d="
  M 737.42 691.12
  Q 746.61 660.14 731.70 630.05
  C 712.40 591.08 669.10 571.03 627.07 581.41
  C 579.11 593.27 550.69 641.56 561.57 689.08
  C 566.99 712.74 582.77 733.42 603.47 745.76
  C 655.28 776.67 720.68 747.58 737.42 691.12"
/>
<path stroke="#697e7f" vector-effect="non-scaling-stroke" d="
  M 854.7177 869.6005
  A 60.16 59.42 40.1 0 0 846.9738 785.3984
  A 60.16 59.42 40.1 0 0 762.6823 792.0995
  A 60.16 59.42 40.1 0 0 770.4262 876.3016
  A 60.16 59.42 40.1 0 0 854.7177 869.6005"
/>
<path stroke="#697e7f" vector-effect="non-scaling-stroke" d="
  M 709.82 671.28
  C 712.05 637.00 683.68 608.41 649.24 609.24
  C 612.33 610.14 585.23 639.37 590.71 676.75
  C 595.17 707.16 618.05 726.30 648.24 726.99
  C 681.35 727.75 707.66 704.35 709.82 671.28"
/>
<path stroke="#697e7f" vector-effect="non-scaling-stroke" d="
  M 662.3585 674.6212
  A 14.92 14.46 31.3 0 0 657.1222 654.5145
  A 14.92 14.46 31.3 0 0 636.8615 659.1188
  A 14.92 14.46 31.3 0 0 642.0978 679.2255
  A 14.92 14.46 31.3 0 0 662.3585 674.6212"
/>
<path stroke="#697e7f" vector-effect="non-scaling-stroke" d="
  M 837.1791 837.7585
  A 29.13 28.59 13.8 0 0 815.7097 803.0453
  A 29.13 28.59 13.8 0 0 780.6009 823.8615
  A 29.13 28.59 13.8 0 0 802.0703 858.5747
  A 29.13 28.59 13.8 0 0 837.1791 837.7585"
/>
</g>
<path fill="#1b292b" d="
  M 0.00 0.00
  L 1024.00 0.00
  L 1024.00 1024.00
  L 0.00 1024.00
  L 0.00 0.00
  Z
  M 682.80 89.52
  C 678.51 71.82 663.16 61.08 645.25 61.06
  Q 514.39 60.88 383.53 61.20
  C 368.52 61.23 355.42 64.14 346.83 77.50
  Q 333.17 98.73 346.12 120.27
  Q 351.15 128.65 360.23 132.39
  Q 365.59 134.60 375.51 135.01
  C 385.30 135.43 397.66 134.96 404.84 134.96
  Q 523.83 135.07 642.83 134.92
  C 654.75 134.91 663.46 133.38 671.78 126.05
  Q 688.16 111.63 682.80 89.52
  Z
  M 921.06 163.63
  C 911.59 159.92 901.31 161.17 891.29 161.21
  Q 833.98 161.45 776.67 161.55
  Q 766.12 161.57 764.86 161.81
  C 746.26 165.38 743.98 194.45 763.74 198.95
  Q 766.19 199.51 779.32 199.53
  Q 829.29 199.61 879.25 199.33
  C 890.39 199.27 902.65 201.83 906.88 213.09
  Q 908.44 217.25 908.41 228.08
  Q 908.27 302.89 908.03 377.69
  C 908.00 386.61 907.87 394.92 915.62 400.22
  Q 919.83 403.10 925.65 403.67
  C 936.74 404.75 944.50 397.44 945.98 386.68
  Q 946.54 382.63 946.53 378.50
  Q 946.24 294.13 946.28 209.73
  Q 946.29 195.16 945.02 189.83
  Q 940.59 171.27 921.06 163.63
  Z
  M 153.88 835.53
  L 249.47 835.59
  L 647.31 835.57
  Q 648.37 835.57 647.57 834.87
  L 605.96 798.35
  A 2.80 2.77 65.3 0 0 604.13 797.66
  L 261.70 797.37
  L 157.09 797.27
  Q 147.52 797.41 138.24 797.19
  Q 129.15 796.99 124.14 791.58
  C 116.94 783.82 117.13 774.98 117.03 762.74
  Q 116.89 744.50 117.08 726.25
  C 117.17 717.91 116.87 713.34 122.97 708.49
  C 131.25 701.92 143.87 702.03 155.11 702.56
  L 178.54 702.49
  L 538.10 703.08
  Q 542.02 715.67 548.43 727.32
  Q 548.67 727.76 548.17 727.76
  Q 510.33 727.65 472.50 727.96
  Q 456.81 728.09 451.34 742.48
  C 447.05 753.76 452.89 766.76 463.90 771.09
  Q 467.15 772.37 472.76 772.35
  Q 537.11 772.20 601.32 772.24
  A 2.08 2.05 66.5 0 1 602.74 772.81
  Q 618.99 788.24 635.46 803.28
  Q 702.01 864.00 769.04 924.19
  Q 778.20 932.42 792.78 947.63
  Q 810.33 958.64 826.32 962.94
  C 850.87 969.54 877.74 966.19 899.84 953.37
  C 923.97 939.37 942.33 914.08 947.32 886.39
  Q 954.18 848.35 934.33 815.81
  C 926.81 802.14 918.60 790.97 905.44 782.48
  C 900.68 779.41 896.38 778.00 892.40 773.51
  Q 883.42 763.40 877.88 757.87
  Q 854.43 734.54 831.39 711.35
  A 0.96 0.95 44.8 0 1 831.38 710.01
  L 866.69 673.28
  A 0.62 0.62 0.0 0 0 866.68 672.41
  L 848.80 654.11
  Q 848.40 653.70 847.99 654.10
  L 815.23 686.29
  A 0.52 0.51 -41.1 0 1 814.47 686.24
  L 803.49 672.64
  Q 803.09 672.14 803.55 671.70
  L 835.05 641.06
  A 0.61 0.61 0.0 0 0 835.07 640.20
  L 807.83 611.72
  Q 807.04 610.88 806.20 611.68
  L 773.73 642.33
  A 0.45 0.44 -41.2 0 1 773.08 642.29
  L 761.75 628.84
  A 0.89 0.89 0.0 0 1 761.82 627.63
  L 792.96 597.73
  A 0.87 0.86 46.7 0 0 792.99 596.51
  L 778.73 581.57
  Q 778.31 581.13 777.85 581.53
  L 747.01 608.45
  A 1.23 1.23 0.0 0 1 745.25 608.30
  L 734.21 594.78
  Q 733.97 594.49 734.25 594.23
  L 762.65 567.76
  Q 763.36 567.11 762.67 566.43
  L 750.40 554.25
  Q 749.78 553.64 749.09 554.17
  L 720.91 575.46
  A 1.11 1.10 43.4 0 1 719.62 575.49
  L 710.73 569.48
  Q 719.55 562.28 726.88 553.37
  C 735.07 543.39 745.93 542.47 757.50 541.99
  Q 759.65 541.90 760.50 542.76
  Q 810.94 593.89 859.70 646.63
  C 865.14 652.51 870.74 659.50 876.26 665.70
  Q 877.78 667.42 877.76 665.12
  Q 877.29 594.54 877.21 525.47
  Q 877.21 525.40 877.37 516.53
  C 877.65 501.61 875.36 487.15 869.22 473.37
  Q 852.62 436.12 816.72 415.45
  A 1.96 1.95 15.2 0 1 815.74 413.74
  Q 815.80 396.59 815.75 379.41
  C 815.75 377.92 815.30 376.06 814.46 375.02
  Q 789.43 343.89 764.89 311.72
  L 759.57 304.04
  A 0.51 0.51 0.0 0 0 758.75 304.01
  L 692.58 388.35
  A 0.98 0.98 0.0 0 0 692.57 389.55
  L 704.84 405.85
  Q 733.20 442.57 761.83 479.95
  Q 765.06 484.17 765.08 486.49
  C 765.11 490.07 761.03 493.48 758.30 490.44
  C 738.99 468.99 721.37 445.71 703.38 423.14
  Q 697.78 416.10 691.02 407.41
  Q 639.35 340.89 586.90 274.98
  L 579.83 265.31
  Q 579.45 264.79 579.04 265.29
  C 551.42 299.04 524.41 333.55 495.12 365.86
  Q 490.72 370.71 485.13 374.13
  Q 474.32 380.74 463.41 386.84
  A 1.85 1.84 -42.4 0 1 461.47 386.76
  L 451.89 380.29
  A 0.79 0.79 0.0 0 0 450.85 380.44
  L 404.14 437.67
  A 1.21 1.20 -49.2 0 0 404.26 439.33
  L 413.97 448.08
  Q 492.69 512.56 570.54 579.01
  L 562.60 586.61
  Q 504.52 537.53 445.70 489.38
  Q 437.72 482.85 430.36 476.56
  Q 380.52 433.93 330.84 391.13
  Q 326.91 387.75 322.26 386.20
  L 317.33 386.47
  A 1.08 1.06 -73.3 0 0 316.53 386.91
  C 313.16 391.46 309.87 396.26 306.45 400.52
  Q 291.10 419.61 275.44 438.43
  C 271.90 442.69 269.20 447.16 265.40 451.35
  Q 259.79 457.53 254.69 464.18
  Q 252.86 466.57 252.81 470.51
  Q 252.70 479.31 252.75 487.77
  A 1.41 1.40 72.2 0 1 252.17 488.91
  C 239.15 498.24 232.60 511.43 226.51 525.22
  Q 226.23 525.84 226.13 525.17
  C 225.86 523.19 225.71 521.12 225.13 519.49
  C 224.12 516.65 219.81 509.54 216.10 513.87
  C 200.65 531.94 186.28 550.89 171.70 569.67
  Q 167.13 575.56 163.10 581.19
  Q 153.32 593.86 144.61 606.64
  C 144.14 607.33 143.62 609.13 143.62 610.19
  Q 143.62 622.31 142.85 634.48
  Q 142.29 643.39 143.17 647.53
  Q 145.35 657.76 153.37 665.64
  C 148.32 665.38 142.77 665.65 138.39 663.34
  C 132.39 660.17 125.86 655.02 121.81 650.94
  C 116.47 645.57 116.89 640.31 116.90 633.75
  Q 116.99 437.50 117.24 241.25
  Q 117.26 230.18 117.43 219.06
  Q 117.48 215.26 118.70 212.68
  C 124.94 199.47 136.86 199.66 149.50 199.74
  Q 232.25 200.21 346.50 199.99
  Q 522.25 199.65 698.00 199.80
  C 707.96 199.81 716.08 198.33 720.98 188.99
  C 725.76 179.87 720.78 166.60 710.80 162.91
  Q 707.25 161.60 698.16 161.59
  Q 406.71 161.26 115.25 161.57
  C 97.94 161.59 83.65 173.63 79.26 189.75
  Q 77.81 195.08 77.79 206.38
  C 77.49 400.82 77.62 595.26 77.31 789.70
  Q 77.30 798.91 78.28 803.24
  C 82.60 822.22 98.48 834.64 117.76 835.45
  Q 125.55 835.78 153.88 835.53
  Z
  M 426.2052 275.1565
  A 23.79 23.30 82.5 0 0 446.2007 248.5287
  A 23.79 23.30 82.5 0 0 419.9948 227.9835
  A 23.79 23.30 82.5 0 0 399.9993 254.6113
  A 23.79 23.30 82.5 0 0 426.2052 275.1565
  Z
  M 358.05 231.68
  Q 354.69 230.41 353.50 230.41
  Q 258.75 230.53 164.00 230.06
  C 153.09 230.00 142.78 232.42 137.67 243.07
  C 132.08 254.70 137.66 268.36 149.59 272.26
  Q 153.55 273.54 165.54 273.57
  Q 254.52 273.74 343.50 274.15
  Q 349.62 274.17 355.48 272.69
  C 375.10 267.72 376.60 238.72 358.05 231.68
  Z
  M 369.87 334.96
  A 24.17 24.17 0.0 0 0 345.70 310.79
  L 162.10 310.79
  A 24.17 24.17 0.0 0 0 137.93 334.96
  L 137.93 336.08
  A 24.17 24.17 0.0 0 0 162.10 360.25
  L 345.70 360.25
  A 24.17 24.17 0.0 0 0 369.87 336.08
  L 369.87 334.96
  Z
  M 447.7665 334.7879
  A 23.65 22.68 -4.2 0 0 422.5190 313.9009
  A 23.65 22.68 -4.2 0 0 400.5935 338.2521
  A 23.65 22.68 -4.2 0 0 425.8410 359.1391
  A 23.65 22.68 -4.2 0 0 447.7665 334.7879
  Z
  M 218.46 427.64
  C 219.90 416.09 211.73 402.11 198.96 400.82
  Q 198.76 400.80 188.53 400.89
  Q 180.51 400.96 172.50 401.03
  Q 158.27 401.15 156.53 401.52
  C 142.66 404.42 133.45 421.74 139.94 434.96
  Q 146.08 447.47 162.15 447.81
  Q 185.06 448.30 196.48 448.01
  C 209.07 447.70 216.92 439.95 218.46 427.64
  Z
  M 941.4437 441.2601
  A 19.42 18.89 -44.7 0 0 914.3529 441.4930
  A 19.42 18.89 -44.7 0 0 913.8363 468.5799
  A 19.42 18.89 -44.7 0 0 940.9271 468.3470
  A 19.42 18.89 -44.7 0 0 941.4437 441.2601
  Z
  M 946.75 521.73
  A 19.26 19.26 0.0 0 0 927.49 502.47
  A 19.26 19.26 0.0 0 0 908.23 521.73
  A 19.26 19.26 0.0 0 0 927.49 540.99
  A 19.26 19.26 0.0 0 0 946.75 521.73
  Z
  M 907.67 646.45
  Q 901.35 655.24 895.83 664.54
  Q 893.03 669.25 889.88 672.90
  Q 876.53 688.35 862.60 703.95
  A 0.54 0.53 20.9 0 0 863.00 704.84
  Q 884.36 705.06 906.00 705.30
  Q 917.21 705.42 921.85 703.98
  C 933.24 700.44 942.25 690.37 945.57 679.11
  Q 947.01 674.26 946.95 663.27
  Q 946.78 627.25 947.01 591.26
  Q 947.10 575.88 933.31 571.97
  C 917.85 567.59 908.73 579.01 908.76 593.25
  Q 908.81 617.70 908.64 642.14
  C 908.64 643.35 908.24 645.66 907.67 646.45
  Z
  M 277.7865 748.9101
  A 21.38 21.38 0.0 0 0 256.3320 727.6049
  L 190.3124 727.8354
  A 21.38 21.38 0.0 0 0 169.0072 749.2899
  L 169.0135 751.0899
  A 21.38 21.38 0.0 0 0 190.4680 772.3951
  L 256.4876 772.1646
  A 21.38 21.38 0.0 0 0 277.7928 750.7101
  L 277.7865 748.9101
  Z
  M 417.82 749.13
  A 21.58 21.58 0.0 0 0 396.24 727.55
  L 330.98 727.55
  A 21.58 21.58 0.0 0 0 309.40 749.13
  L 309.40 750.95
  A 21.58 21.58 0.0 0 0 330.98 772.53
  L 396.24 772.53
  A 21.58 21.58 0.0 0 0 417.82 750.95
  L 417.82 749.13
  Z
  M 945.52 754.13
  A 18.63 18.63 0.0 0 0 926.89 735.50
  A 18.63 18.63 0.0 0 0 908.26 754.13
  A 18.63 18.63 0.0 0 0 926.89 772.76
  A 18.63 18.63 0.0 0 0 945.52 754.13
  Z"
/>
<path fill="#b6d3d2" d="
  M 645.25 61.06
  C 663.16 61.08 678.51 71.82 682.80 89.52
  Q 688.16 111.63 671.78 126.05
  C 663.46 133.38 654.75 134.91 642.83 134.92
  Q 523.83 135.07 404.84 134.96
  C 397.66 134.96 385.30 135.43 375.51 135.01
  Q 365.59 134.60 360.23 132.39
  Q 351.15 128.65 346.12 120.27
  Q 333.17 98.73 346.83 77.50
  C 355.42 64.14 368.52 61.23 383.53 61.20
  Q 514.39 60.88 645.25 61.06
  Z
  M 510.8859 115.4499
  A 17.10 16.42 93.4 0 0 528.2911 99.3538
  A 17.10 16.42 93.4 0 0 512.9141 81.3101
  A 17.10 16.42 93.4 0 0 495.5089 97.4062
  A 17.10 16.42 93.4 0 0 510.8859 115.4499
  Z
  M 665.73 98.43
  A 17.16 17.16 0.0 0 0 648.57 81.27
  A 17.16 17.16 0.0 0 0 631.41 98.43
  A 17.16 17.16 0.0 0 0 648.57 115.59
  A 17.16 17.16 0.0 0 0 665.73 98.43
  Z
  M 388.4469 109.9822
  A 17.57 17.11 39.4 0 0 385.7302 85.6085
  A 17.57 17.11 39.4 0 0 361.2931 87.6778
  A 17.57 17.11 39.4 0 0 364.0098 112.0515
  A 17.57 17.11 39.4 0 0 388.4469 109.9822
  Z
  M 574.0081 113.4578
  A 16.60 16.04 110.9 0 0 594.9146 103.6721
  A 16.60 16.04 110.9 0 0 585.8519 82.4422
  A 16.60 16.04 110.9 0 0 564.9454 92.2279
  A 16.60 16.04 110.9 0 0 574.0081 113.4578
  Z
  M 458.4118 90.7776
  A 16.80 16.40 -26.6 0 0 436.0468 83.6359
  A 16.80 16.40 -26.6 0 0 428.3682 105.8224
  A 16.80 16.40 -26.6 0 0 450.7332 112.9641
  A 16.80 16.40 -26.6 0 0 458.4118 90.7776
  Z"
/>
<ellipse fill="#1b292b" cx="0.00" cy="0.00" transform="translate(511.90,98.38) rotate(93.4)" rx="17.10" ry="16.42"/>
<circle fill="#1b292b" cx="648.57" cy="98.43" r="17.16"/>
<ellipse fill="#1b292b" cx="0.00" cy="0.00" transform="translate(374.87,98.83) rotate(39.4)" rx="17.57" ry="17.11"/>
<ellipse fill="#1b292b" cx="0.00" cy="0.00" transform="translate(579.93,97.95) rotate(110.9)" rx="16.60" ry="16.04"/>
<ellipse fill="#1b292b" cx="0.00" cy="0.00" transform="translate(443.39,98.30) rotate(-26.6)" rx="16.80" ry="16.40"/>
<path fill="#83b4bb" d="
  M 921.06 163.63
  Q 940.59 171.27 945.02 189.83
  Q 946.29 195.16 946.28 209.73
  Q 946.24 294.13 946.53 378.50
  Q 946.54 382.63 945.98 386.68
  C 944.50 397.44 936.74 404.75 925.65 403.67
  Q 919.83 403.10 915.62 400.22
  C 907.87 394.92 908.00 386.61 908.03 377.69
  Q 908.27 302.89 908.41 228.08
  Q 908.44 217.25 906.88 213.09
  C 902.65 201.83 890.39 199.27 879.25 199.33
  Q 829.29 199.61 779.32 199.53
  Q 766.19 199.51 763.74 198.95
  C 743.98 194.45 746.26 165.38 764.86 161.81
  Q 766.12 161.57 776.67 161.55
  Q 833.98 161.45 891.29 161.21
  C 901.31 161.17 911.59 159.92 921.06 163.63
  Z"
/>
<path fill="#e2b5a1" d="
  M 153.37 665.64
  L 165.95 666.02
  Q 165.96 667.26 165.40 669.06
  Q 164.74 671.21 164.55 672.03
  Q 161.95 683.53 159.33 695.00
  Q 158.75 697.54 155.11 702.56
  C 143.87 702.03 131.25 701.92 122.97 708.49
  C 116.87 713.34 117.17 717.91 117.08 726.25
  Q 116.89 744.50 117.03 762.74
  C 117.13 774.98 116.94 783.82 124.14 791.58
  Q 129.15 796.99 138.24 797.19
  Q 147.52 797.41 157.09 797.27
  L 154.37 799.37
  Q 154.19 799.52 154.12 799.73
  Q 154.04 799.98 154.32 799.86
  Q 154.78 799.66 154.75 800.16
  Q 154.35 805.73 154.27 811.32
  Q 154.21 815.48 153.86 822.21
  Q 153.51 828.80 153.88 835.53
  Q 125.55 835.78 117.76 835.45
  C 98.48 834.64 82.60 822.22 78.28 803.24
  Q 77.30 798.91 77.31 789.70
  C 77.62 595.26 77.49 400.82 77.79 206.38
  Q 77.81 195.08 79.26 189.75
  C 83.65 173.63 97.94 161.59 115.25 161.57
  Q 406.71 161.26 698.16 161.59
  Q 707.25 161.60 710.80 162.91
  C 720.78 166.60 725.76 179.87 720.98 188.99
  C 716.08 198.33 707.96 199.81 698.00 199.80
  Q 522.25 199.65 346.50 199.99
  Q 232.25 200.21 149.50 199.74
  C 136.86 199.66 124.94 199.47 118.70 212.68
  Q 117.48 215.26 117.43 219.06
  Q 117.26 230.18 117.24 241.25
  Q 116.99 437.50 116.90 633.75
  C 116.89 640.31 116.47 645.57 121.81 650.94
  C 125.86 655.02 132.39 660.17 138.39 663.34
  C 142.77 665.65 148.32 665.38 153.37 665.64
  Z"
/>
<ellipse fill="#e2b5a1" cx="0.00" cy="0.00" transform="translate(423.10,251.57) rotate(82.5)" rx="23.79" ry="23.30"/>
<path fill="#b6d3d2" d="
  M 358.05 231.68
  C 376.60 238.72 375.10 267.72 355.48 272.69
  Q 349.62 274.17 343.50 274.15
  Q 254.52 273.74 165.54 273.57
  Q 153.55 273.54 149.59 272.26
  C 137.66 268.36 132.08 254.70 137.67 243.07
  C 142.78 232.42 153.09 230.00 164.00 230.06
  Q 258.75 230.53 353.50 230.41
  Q 354.69 230.41 358.05 231.68
  Z"
/>
<path fill="#e2b5a1" d="
  M 586.90 274.98
  Q 576.05 290.50 565.40 306.02
  Q 559.69 314.35 553.79 322.29
  Q 516.88 371.98 480.91 422.48
  Q 480.56 422.97 480.09 422.59
  L 454.22 401.71
  Q 453.76 401.34 453.31 401.71
  Q 451.33 403.29 449.44 405.69
  Q 434.81 424.20 413.97 448.08
  L 404.26 439.33
  A 1.21 1.20 -49.2 0 1 404.14 437.67
  L 450.85 380.44
  A 0.79 0.79 0.0 0 1 451.89 380.29
  L 461.47 386.76
  A 1.85 1.84 -42.4 0 0 463.41 386.84
  Q 474.32 380.74 485.13 374.13
  Q 490.72 370.71 495.12 365.86
  C 524.41 333.55 551.42 299.04 579.04 265.29
  Q 579.45 264.79 579.83 265.31
  L 586.90 274.98
  Z"
/>
<path fill="#d24433" d="
  M 586.90 274.98
  Q 639.35 340.89 691.02 407.41
  Q 697.78 416.10 703.38 423.14
  C 721.37 445.71 738.99 468.99 758.30 490.44
  C 761.03 493.48 765.11 490.07 765.08 486.49
  Q 765.06 484.17 761.83 479.95
  Q 733.20 442.57 704.84 405.85
  L 764.89 311.72
  Q 789.43 343.89 814.46 375.02
  C 815.30 376.06 815.75 377.92 815.75 379.41
  Q 815.80 396.59 815.74 413.74
  A 1.96 1.95 15.2 0 0 816.72 415.45
  Q 852.62 436.12 869.22 473.37
  C 875.36 487.15 877.65 501.61 877.37 516.53
  Q 877.21 525.40 877.21 525.47
  Q 877.29 594.54 877.76 665.12
  Q 877.78 667.42 876.26 665.70
  C 870.74 659.50 865.14 652.51 859.70 646.63
  Q 810.94 593.89 760.50 542.76
  Q 759.65 541.90 757.50 541.99
  C 745.93 542.47 735.07 543.39 726.88 553.37
  Q 719.55 562.28 710.73 569.48
  Q 705.51 566.78 700.33 563.95
  Q 666.50 545.45 627.98 551.52
  Q 595.81 556.58 570.54 579.01
  Q 492.69 512.56 413.97 448.08
  Q 434.81 424.20 449.44 405.69
  Q 451.33 403.29 453.31 401.71
  Q 453.76 401.34 454.22 401.71
  L 480.09 422.59
  Q 480.56 422.97 480.91 422.48
  Q 516.88 371.98 553.79 322.29
  Q 559.69 314.35 565.40 306.02
  Q 576.05 290.50 586.90 274.98
  Z"
/>
<path fill="#e2b5a1" d="
  M 764.89 311.72
  L 704.84 405.85
  L 692.57 389.55
  A 0.98 0.98 0.0 0 1 692.58 388.35
  L 758.75 304.01
  A 0.51 0.51 0.0 0 1 759.57 304.04
  L 764.89 311.72
  Z"
/>
<rect fill="#d24433" x="137.93" y="310.79" width="231.94" height="49.46" rx="24.17"/>
<ellipse fill="#d24433" cx="0.00" cy="0.00" transform="translate(424.18,336.52) rotate(-4.2)" rx="23.65" ry="22.68"/>
<path fill="#e2b5a1" d="
  M 322.26 386.20
  Q 314.41 405.69 298.78 441.04
  Q 284.64 473.01 268.19 498.82
  C 265.59 502.89 270.30 504.66 272.87 506.63
  A 0.55 0.55 0.0 0 1 272.92 507.46
  C 271.49 508.84 269.71 510.30 268.56 511.65
  Q 250.05 533.44 230.68 556.19
  A 2.54 2.54 0.0 0 1 227.43 556.72
  L 208.47 545.22
  A 1.02 1.01 35.4 0 0 207.15 545.44
  Q 192.56 563.41 177.76 580.53
  Q 176.46 582.04 174.25 581.44
  Q 168.20 579.81 163.10 581.19
  Q 167.13 575.56 171.70 569.67
  C 186.28 550.89 200.65 531.94 216.10 513.87
  C 219.81 509.54 224.12 516.65 225.13 519.49
  C 225.71 521.12 225.86 523.19 226.13 525.17
  Q 226.23 525.84 226.51 525.22
  C 232.60 511.43 239.15 498.24 252.17 488.91
  A 1.41 1.40 72.2 0 0 252.75 487.77
  Q 252.70 479.31 252.81 470.51
  Q 252.86 466.57 254.69 464.18
  Q 259.79 457.53 265.40 451.35
  C 269.20 447.16 271.90 442.69 275.44 438.43
  Q 291.10 419.61 306.45 400.52
  C 309.87 396.26 313.16 391.46 316.53 386.91
  A 1.08 1.06 -73.3 0 1 317.33 386.47
  L 322.26 386.20
  Z"
/>
<path fill="#d24433" d="
  M 322.26 386.20
  Q 326.91 387.75 330.84 391.13
  Q 380.52 433.93 430.36 476.56
  Q 437.72 482.85 445.70 489.38
  Q 504.52 537.53 562.60 586.61
  Q 539.64 613.45 534.26 648.00
  Q 533.45 653.22 532.63 666.77
  L 202.29 666.29
  L 165.95 666.02
  L 153.37 665.64
  Q 145.35 657.76 143.17 647.53
  Q 142.29 643.39 142.85 634.48
  Q 143.62 622.31 143.62 610.19
  C 143.62 609.13 144.14 607.33 144.61 606.64
  Q 153.32 593.86 163.10 581.19
  Q 168.20 579.81 174.25 581.44
  Q 176.46 582.04 177.76 580.53
  Q 192.56 563.41 207.15 545.44
  A 1.02 1.01 35.4 0 1 208.47 545.22
  L 227.43 556.72
  A 2.54 2.54 0.0 0 0 230.68 556.19
  Q 250.05 533.44 268.56 511.65
  C 269.71 510.30 271.49 508.84 272.92 507.46
  A 0.55 0.55 0.0 0 0 272.87 506.63
  C 270.30 504.66 265.59 502.89 268.19 498.82
  Q 284.64 473.01 298.78 441.04
  Q 314.41 405.69 322.26 386.20
  Z"
/>
<path fill="#d24433" d="
  M 218.46 427.64
  C 216.92 439.95 209.07 447.70 196.48 448.01
  Q 185.06 448.30 162.15 447.81
  Q 146.08 447.47 139.94 434.96
  C 133.45 421.74 142.66 404.42 156.53 401.52
  Q 158.27 401.15 172.50 401.03
  Q 180.51 400.96 188.53 400.89
  Q 198.76 400.80 198.96 400.82
  C 211.73 402.11 219.90 416.09 218.46 427.64
  Z"
/>
<ellipse fill="#83b4bb" cx="0.00" cy="0.00" transform="translate(927.64,454.92) rotate(-44.7)" rx="19.42" ry="18.89"/>
<path fill="#83b4bb" d="
  M 946.75 521.73
  A 19.26 19.26 0.0 0 1 927.49 540.99
  A 19.26 19.26 0.0 0 1 908.23 521.73
  A 19.26 19.26 0.0 0 1 927.49 502.47
  A 19.26 19.26 0.0 0 1 946.75 521.73
  Z
  M 929.4765 525.6766
  A 2.34 0.67 86.9 0 0 930.0190 523.3038
  A 2.34 0.67 86.9 0 0 929.2235 521.0034
  A 2.34 0.67 86.9 0 0 928.6810 523.3762
  A 2.34 0.67 86.9 0 0 929.4765 525.6766
  Z"
/>
<ellipse fill="#1b292b" cx="0.00" cy="0.00" transform="translate(929.35,523.34) rotate(86.9)" rx="2.34" ry="0.67"/>
<path fill="#b6d3d2" d="
  M 710.73 569.48
  L 719.62 575.49
  A 1.11 1.10 43.4 0 0 720.91 575.46
  L 749.09 554.17
  Q 749.78 553.64 750.40 554.25
  L 762.67 566.43
  Q 763.36 567.11 762.65 567.76
  L 734.25 594.23
  Q 733.97 594.49 734.21 594.78
  L 745.25 608.30
  A 1.23 1.23 0.0 0 0 747.01 608.45
  L 777.85 581.53
  Q 778.31 581.13 778.73 581.57
  L 792.99 596.51
  A 0.87 0.86 46.7 0 1 792.96 597.73
  L 761.82 627.63
  A 0.89 0.89 0.0 0 0 761.75 628.84
  L 773.08 642.29
  A 0.45 0.44 -41.2 0 0 773.73 642.33
  L 806.20 611.68
  Q 807.04 610.88 807.83 611.72
  L 835.07 640.20
  A 0.61 0.61 0.0 0 1 835.05 641.06
  L 803.55 671.70
  Q 803.09 672.14 803.49 672.64
  L 814.47 686.24
  A 0.52 0.51 -41.1 0 0 815.23 686.29
  L 847.99 654.10
  Q 848.40 653.70 848.80 654.11
  L 866.68 672.41
  A 0.62 0.62 0.0 0 1 866.69 673.28
  L 831.38 710.01
  A 0.96 0.95 44.8 0 0 831.39 711.35
  Q 854.43 734.54 877.88 757.87
  Q 883.42 763.40 892.40 773.51
  C 896.38 778.00 900.68 779.41 905.44 782.48
  C 918.60 790.97 926.81 802.14 934.33 815.81
  Q 933.12 819.64 934.82 823.03
  Q 937.13 827.65 937.33 831.62
  Q 938.34 851.59 933.33 870.68
  C 924.36 904.90 894.36 936.26 861.06 948.06
  C 847.49 952.86 832.43 953.82 818.25 951.95
  Q 808.77 950.70 792.78 947.63
  Q 778.20 932.42 769.04 924.19
  Q 702.01 864.00 635.46 803.28
  Q 618.99 788.24 602.74 772.81
  A 2.08 2.05 66.5 0 0 601.32 772.24
  Q 537.11 772.20 472.76 772.35
  Q 467.15 772.37 463.90 771.09
  C 452.89 766.76 447.05 753.76 451.34 742.48
  Q 456.81 728.09 472.50 727.96
  Q 510.33 727.65 548.17 727.76
  Q 548.67 727.76 548.43 727.32
  Q 542.02 715.67 538.10 703.08
  Q 538.08 702.77 538.09 702.52
  Q 538.11 702.20 538.04 701.99
  C 534.13 689.75 533.65 678.97 532.63 666.77
  Q 533.45 653.22 534.26 648.00
  Q 539.64 613.45 562.60 586.61
  L 570.54 579.01
  Q 595.81 556.58 627.98 551.52
  Q 666.50 545.45 700.33 563.95
  Q 705.51 566.78 710.73 569.48
  Z
  M 737.42 691.12
  Q 746.61 660.14 731.70 630.05
  C 712.40 591.08 669.10 571.03 627.07 581.41
  C 579.11 593.27 550.69 641.56 561.57 689.08
  C 566.99 712.74 582.77 733.42 603.47 745.76
  C 655.28 776.67 720.68 747.58 737.42 691.12
  Z
  M 854.7177 869.6005
  A 60.16 59.42 40.1 0 0 846.9738 785.3984
  A 60.16 59.42 40.1 0 0 762.6823 792.0995
  A 60.16 59.42 40.1 0 0 770.4262 876.3016
  A 60.16 59.42 40.1 0 0 854.7177 869.6005
  Z"
/>
<path fill="#e2b5a1" d="
  M 907.67 646.45
  C 908.24 645.66 908.64 643.35 908.64 642.14
  Q 908.81 617.70 908.76 593.25
  C 908.73 579.01 917.85 567.59 933.31 571.97
  Q 947.10 575.88 947.01 591.26
  Q 946.78 627.25 946.95 663.27
  Q 947.01 674.26 945.57 679.11
  C 942.25 690.37 933.24 700.44 921.85 703.98
  Q 917.21 705.42 906.00 705.30
  Q 884.36 705.06 863.00 704.84
  A 0.54 0.53 20.9 0 1 862.60 703.95
  Q 876.53 688.35 889.88 672.90
  Q 893.03 669.25 895.83 664.54
  Q 901.35 655.24 907.67 646.45
  Z"
/>
<path fill="#1b292b" d="
  M 737.42 691.12
  C 720.68 747.58 655.28 776.67 603.47 745.76
  C 582.77 733.42 566.99 712.74 561.57 689.08
  C 550.69 641.56 579.11 593.27 627.07 581.41
  C 669.10 571.03 712.40 591.08 731.70 630.05
  Q 746.61 660.14 737.42 691.12
  Z
  M 709.82 671.28
  C 712.05 637.00 683.68 608.41 649.24 609.24
  C 612.33 610.14 585.23 639.37 590.71 676.75
  C 595.17 707.16 618.05 726.30 648.24 726.99
  C 681.35 727.75 707.66 704.35 709.82 671.28
  Z"
/>
<path fill="#b6d3d2" d="
  M 649.24 609.24
  C 683.68 608.41 712.05 637.00 709.82 671.28
  C 707.66 704.35 681.35 727.75 648.24 726.99
  C 618.05 726.30 595.17 707.16 590.71 676.75
  C 585.23 639.37 612.33 610.14 649.24 609.24
  Z
  M 662.3585 674.6212
  A 14.92 14.46 31.3 0 0 657.1222 654.5145
  A 14.92 14.46 31.3 0 0 636.8615 659.1188
  A 14.92 14.46 31.3 0 0 642.0978 679.2255
  A 14.92 14.46 31.3 0 0 662.3585 674.6212
  Z"
/>
<ellipse fill="#1b292b" cx="0.00" cy="0.00" transform="translate(649.61,666.87) rotate(31.3)" rx="14.92" ry="14.46"/>
<path fill="#a4b6b3" d="
  M 165.95 666.02
  L 202.29 666.29
  Q 202.10 666.48 202.22 666.78
  Q 202.31 667.02 202.05 667.06
  C 200.82 667.26 200.40 668.39 199.68 669.02
  Q 191.32 676.31 187.45 685.67
  Q 186.77 687.30 185.49 687.73
  A 0.32 0.32 0.0 0 1 185.16 687.21
  L 185.80 686.54
  Q 185.90 686.44 185.77 686.38
  Q 185.62 686.31 185.50 686.19
  Q 185.29 685.99 185.22 686.27
  L 182.78 696.08
  A 1.05 1.04 -11.6 0 1 182.40 696.65
  Q 180.68 697.95 180.94 700.07
  Q 181.01 700.60 180.59 700.92
  L 178.54 702.49
  L 155.11 702.56
  Q 158.75 697.54 159.33 695.00
  Q 161.95 683.53 164.55 672.03
  Q 164.74 671.21 165.40 669.06
  Q 165.96 667.26 165.95 666.02
  Z"
/>
<path fill="#83b4bb" d="
  M 202.29 666.29
  L 532.63 666.77
  C 533.65 678.97 534.13 689.75 538.04 701.99
  Q 538.11 702.20 538.09 702.52
  Q 538.08 702.77 538.10 703.08
  L 178.54 702.49
  L 180.59 700.92
  Q 181.01 700.60 180.94 700.07
  Q 180.68 697.95 182.40 696.65
  A 1.05 1.04 -11.6 0 0 182.78 696.08
  L 185.22 686.27
  Q 185.29 685.99 185.50 686.19
  Q 185.62 686.31 185.77 686.38
  Q 185.90 686.44 185.80 686.54
  L 185.16 687.21
  A 0.32 0.32 0.0 0 0 185.49 687.73
  Q 186.77 687.30 187.45 685.67
  Q 191.32 676.31 199.68 669.02
  C 200.40 668.39 200.82 667.26 202.05 667.06
  Q 202.31 667.02 202.22 666.78
  Q 202.10 666.48 202.29 666.29
  Z"
/>
<rect fill="#b6d3d2" x="-54.39" y="-22.28" transform="translate(223.40,750.00) rotate(-0.2)" width="108.78" height="44.56" rx="21.38"/>
<rect fill="#b6d3d2" x="309.40" y="727.55" width="108.42" height="44.98" rx="21.58"/>
<circle fill="#e2b5a1" cx="926.89" cy="754.13" r="18.63"/>
<path fill="#1b292b" d="
  M 854.7177 869.6005
  A 60.16 59.42 40.1 0 1 770.4262 876.3016
  A 60.16 59.42 40.1 0 1 762.6823 792.0995
  A 60.16 59.42 40.1 0 1 846.9738 785.3984
  A 60.16 59.42 40.1 0 1 854.7177 869.6005
  Z
  M 837.1791 837.7585
  A 29.13 28.59 13.8 0 0 815.7097 803.0453
  A 29.13 28.59 13.8 0 0 780.6009 823.8615
  A 29.13 28.59 13.8 0 0 802.0703 858.5747
  A 29.13 28.59 13.8 0 0 837.1791 837.7585
  Z"
/>
<path fill="#a4b6b3" d="
  M 157.09 797.27
  L 261.70 797.37
  Q 262.38 798.24 264.27 797.87
  Q 264.55 797.82 264.76 797.88
  Q 265.42 798.06 264.74 798.12
  Q 264.13 798.17 263.67 798.70
  Q 263.37 799.04 263.28 799.48
  C 261.99 805.50 258.30 809.47 256.00 815.25
  Q 255.82 815.72 255.92 816.21
  Q 256.08 817.03 255.19 817.11
  A 1.46 1.46 0.0 0 0 253.97 818.05
  Q 250.97 826.26 248.43 834.56
  Q 248.33 834.91 249.47 835.59
  L 153.88 835.53
  Q 153.51 828.80 153.86 822.21
  Q 154.21 815.48 154.27 811.32
  Q 154.35 805.73 154.75 800.16
  Q 154.78 799.66 154.32 799.86
  Q 154.04 799.98 154.12 799.73
  Q 154.19 799.52 154.37 799.37
  L 157.09 797.27
  Z"
/>
<path fill="#83b4bb" d="
  M 249.47 835.59
  Q 248.33 834.91 248.43 834.56
  Q 250.97 826.26 253.97 818.05
  A 1.46 1.46 0.0 0 1 255.19 817.11
  Q 256.08 817.03 255.92 816.21
  Q 255.82 815.72 256.00 815.25
  C 258.30 809.47 261.99 805.50 263.28 799.48
  Q 263.37 799.04 263.67 798.70
  Q 264.13 798.17 264.74 798.12
  Q 265.42 798.06 264.76 797.88
  Q 264.55 797.82 264.27 797.87
  Q 262.38 798.24 261.70 797.37
  L 604.13 797.66
  A 2.80 2.77 65.3 0 1 605.96 798.35
  L 647.57 834.87
  Q 648.37 835.57 647.31 835.57
  L 249.47 835.59
  Z"
/>
<ellipse fill="#b6d3d2" cx="0.00" cy="0.00" transform="translate(808.89,830.81) rotate(13.8)" rx="29.13" ry="28.59"/>
<path fill="#e2b5a1" d="
  M 934.33 815.81
  Q 954.18 848.35 947.32 886.39
  C 942.33 914.08 923.97 939.37 899.84 953.37
  C 877.74 966.19 850.87 969.54 826.32 962.94
  Q 810.33 958.64 792.78 947.63
  Q 808.77 950.70 818.25 951.95
  C 832.43 953.82 847.49 952.86 861.06 948.06
  C 894.36 936.26 924.36 904.90 933.33 870.68
  Q 938.34 851.59 937.33 831.62
  Q 937.13 827.65 934.82 823.03
  Q 933.12 819.64 934.33 815.81
  Z"
/>
</svg>
