<?xml version="1.0" encoding="UTF-8" standalone="no"?>
<!DOCTYPE svg PUBLIC "-//W3C//DTD SVG 1.1//EN" "http://www.w3.org/Graphics/SVG/1.1/DTD/svg11.dtd">
<svg xmlns="http://www.w3.org/2000/svg" version="1.1" viewBox="0.00 0.00 1024.00 640.00">
<path stroke="#a2aab4" stroke-width="2.00" fill="none" stroke-linecap="butt" vector-effect="non-scaling-stroke" d="
  M 568.06 314.92
  Q 583.90 314.88 599.74 314.68
  C 614.51 314.48 624.98 313.54 637.02 308.09
  Q 672.91 291.87 682.39 253.18
  A 0.95 0.95 0.0 0 0 681.47 252.01
  L 631.31 251.87
  A 3.43 3.41 20.5 0 0 628.70 253.05
  Q 621.23 261.67 610.56 264.87
  Q 605.31 266.45 595.00 266.53
  Q 581.35 266.63 567.70 266.47
  Q 567.18 266.46 567.16 265.94
  C 566.24 237.17 584.54 206.62 616.02 206.50
  Q 648.21 206.38 680.63 206.28
  Q 681.25 206.28 681.26 205.66
  L 681.57 157.29
  Q 681.57 156.74 681.02 156.74
  Q 652.75 156.80 624.49 156.82
  C 607.57 156.84 596.86 156.61 584.03 161.78
  Q 542.51 178.50 526.16 219.93
  A 0.58 0.58 0.0 0 1 525.25 220.16
  Q 506.66 204.85 482.50 202.91
  Q 457.92 200.93 433.37 201.32
  A 0.70 0.69 85.0 0 0 432.70 202.13
  C 437.53 231.87 459.09 252.85 487.59 260.48
  C 496.45 262.86 506.36 263.06 515.73 262.54
  A 0.48 0.48 0.0 0 1 516.24 263.02
  Q 516.21 315.63 516.24 368.26
  Q 516.25 379.54 514.90 385.62
  Q 510.17 406.83 492.40 420.36
  Q 469.03 438.16 439.61 432.67
  Q 416.97 428.44 404.45 411.01
  C 392.58 394.49 391.30 374.39 404.59 357.85
  Q 413.00 347.39 425.79 342.65
  C 435.25 339.15 445.96 339.21 456.51 339.60
  Q 464.12 339.87 487.00 340.03
  Q 487.76 340.04 487.20 339.52
  C 472.58 325.87 455.73 312.48 448.02 293.32
  Q 447.66 292.42 446.70 292.36
  C 404.48 289.72 366.82 313.07 350.35 351.72
  C 331.75 395.38 353.18 440.78 390.99 465.30
  Q 421.86 485.32 460.50 482.44
  C 499.68 479.52 531.49 459.97 551.86 426.90
  Q 566.12 403.75 567.21 376.50
  C 568.03 356.00 567.07 334.70 567.43 315.54
  Q 567.44 314.93 568.06 314.92"
/>
<path fill="#46576b" d="
  M 0.00 0.00
  L 1024.00 0.00
  L 1024.00 640.00
  L 0.00 640.00
  L 0.00 0.00
  Z
  M 568.06 314.92
  Q 583.90 314.88 599.74 314.68
  C 614.51 314.48 624.98 313.54 637.02 308.09
  Q 672.91 291.87 682.39 253.18
  A 0.95 0.95 0.0 0 0 681.47 252.01
  L 631.31 251.87
  A 3.43 3.41 20.5 0 0 628.70 253.05
  Q 621.23 261.67 610.56 264.87
  Q 605.31 266.45 595.00 266.53
  Q 581.35 266.63 567.70 266.47
  Q 567.18 266.46 567.16 265.94
  C 566.24 237.17 584.54 206.62 616.02 206.50
  Q 648.21 206.38 680.63 206.28
  Q 681.25 206.28 681.26 205.66
  L 681.57 157.29
  Q 681.57 156.74 681.02 156.74
  Q 652.75 156.80 624.49 156.82
  C 607.57 156.84 596.86 156.61 584.03 161.78
  Q 542.51 178.50 526.16 219.93
  A 0.58 0.58 0.0 0 1 525.25 220.16
  Q 506.66 204.85 482.50 202.91
  Q 457.92 200.93 433.37 201.32
  A 0.70 0.69 85.0 0 0 432.70 202.13
  C 437.53 231.87 459.09 252.85 487.59 260.48
  C 496.45 262.86 506.36 263.06 515.73 262.54
  A 0.48 0.48 0.0 0 1 516.24 263.02
  Q 516.21 315.63 516.24 368.26
  Q 516.25 379.54 514.90 385.62
  Q 510.17 406.83 492.40 420.36
  Q 469.03 438.16 439.61 432.67
  Q 416.97 428.44 404.45 411.01
  C 392.58 394.49 391.30 374.39 404.59 357.85
  Q 413.00 347.39 425.79 342.65
  C 435.25 339.15 445.96 339.21 456.51 339.60
  Q 464.12 339.87 487.00 340.03
  Q 487.76 340.04 487.20 339.52
  C 472.58 325.87 455.73 312.48 448.02 293.32
  Q 447.66 292.42 446.70 292.36
  C 404.48 289.72 366.82 313.07 350.35 351.72
  C 331.75 395.38 353.18 440.78 390.99 465.30
  Q 421.86 485.32 460.50 482.44
  C 499.68 479.52 531.49 459.97 551.86 426.90
  Q 566.12 403.75 567.21 376.50
  C 568.03 356.00 567.07 334.70 567.43 315.54
  Q 567.44 314.93 568.06 314.92
  Z"
/>
<path fill="#fdfdfd" d="
  M 567.43 315.54
  C 567.07 334.70 568.03 356.00 567.21 376.50
  Q 566.12 403.75 551.86 426.90
  C 531.49 459.97 499.68 479.52 460.50 482.44
  Q 421.86 485.32 390.99 465.30
  C 353.18 440.78 331.75 395.38 350.35 351.72
  C 366.82 313.07 404.48 289.72 446.70 292.36
  Q 447.66 292.42 448.02 293.32
  C 455.73 312.48 472.58 325.87 487.20 339.52
  Q 487.76 340.04 487.00 340.03
  Q 464.12 339.87 456.51 339.60
  C 445.96 339.21 435.25 339.15 425.79 342.65
  Q 413.00 347.39 404.59 357.85
  C 391.30 374.39 392.58 394.49 404.45 411.01
  Q 416.97 428.44 439.61 432.67
  Q 469.03 438.16 492.40 420.36
  Q 510.17 406.83 514.90 385.62
  Q 516.25 379.54 516.24 368.26
  Q 516.21 315.63 516.24 263.02
  A 0.48 0.48 0.0 0 0 515.73 262.54
  C 506.36 263.06 496.45 262.86 487.59 260.48
  C 459.09 252.85 437.53 231.87 432.70 202.13
  A 0.70 0.69 85.0 0 1 433.37 201.32
  Q 457.92 200.93 482.50 202.91
  Q 506.66 204.85 525.25 220.16
  A 0.58 0.58 0.0 0 0 526.16 219.93
  Q 542.51 178.50 584.03 161.78
  C 596.86 156.61 607.57 156.84 624.49 156.82
  Q 652.75 156.80 681.02 156.74
  Q 681.57 156.74 681.57 157.29
  L 681.26 205.66
  Q 681.25 206.28 680.63 206.28
  Q 648.21 206.38 616.02 206.50
  C 584.54 206.62 566.24 237.17 567.16 265.94
  Q 567.18 266.46 567.70 266.47
  Q 581.35 266.63 595.00 266.53
  Q 605.31 266.45 610.56 264.87
  Q 621.23 261.67 628.70 253.05
  A 3.43 3.41 20.5 0 1 631.31 251.87
  L 681.47 252.01
  A 0.95 0.95 0.0 0 1 682.39 253.18
  Q 672.91 291.87 637.02 308.09
  C 624.98 313.54 614.51 314.48 599.74 314.68
  Q 583.90 314.88 568.06 314.92
  Q 567.44 314.93 567.43 315.54
  Z"
/>
</svg>
